<svg xmlns="http://www.w3.org/2000/svg" viewBox="0 0 699.428 699.428" width="20" height="20">
    <path
        d="M568.285 0H131.143C82.86 0 43.714 39.146 43.714 87.429v611.999h40.807l90.336-65.57 87.428 65.57 87.429-65.57 87.429 65.57 87.429-65.57 90.335 65.57h40.808V87.429C655.714 39.146 616.567 0 568.285 0zm-65.571 437.143h-306c-12.065 0-21.857-9.791-21.857-21.857 0-12.064 9.792-21.857 21.857-21.857h306c12.065 0 21.857 9.793 21.857 21.857 0 12.066-9.792 21.857-21.857 21.857zm0-131.645h-306c-12.065 0-21.857-9.792-21.857-21.857s9.792-21.857 21.857-21.857h306c12.065 0 21.857 9.792 21.857 21.857s-9.792 21.857-21.857 21.857zm0-130.641h-306c-12.065 0-21.857-9.792-21.857-21.857s9.792-21.857 21.857-21.857h306c12.065 0 21.857 9.792 21.857 21.857s-9.792 21.857-21.857 21.857z" />
</svg>