<svg xmlns="http://www.w3.org/2000/svg" width="100" height="100" viewBox="0 0 100 100" fill="none">
<path d="M20.8946 37.2322L18.4174 34.2705L13.9221 38.0295L20.2896 45.6421L30.8784 36.1526L26.9684 31.7886L20.8946 37.2322Z" fill="#E0E1E4"/>
<path d="M35.2867 36.5234H57.9384V42.3828H35.2867V36.5234Z" fill="#E0E1E4"/>
<path d="M20.8946 54.0794L18.4174 51.1177L13.9221 54.8767L20.2896 62.4893L30.8784 52.9999L26.9684 48.6366L20.8946 54.0794Z" fill="#E0E1E4"/>
<path d="M35.2867 53.3707H57.9384V59.23H35.2867V53.3707Z" fill="#E0E1E4"/>
<path d="M20.8946 70.9267L18.4174 67.9649L13.9221 71.7239L20.2896 79.3365L30.8784 69.8471L26.9684 65.4839L20.8946 70.9267Z" fill="#E0E1E4"/>
<path d="M35.2867 70.2187H57.9384V76.078H35.2867V70.2187Z" fill="#E0E1E4"/>
<path d="M59.0912 0H53.2318V5.96619H45.6741V0H39.8148V5.96619H32.2556V0H26.3962V5.96619H18.8385V0H12.9791V5.96619H0V100H72.0703V5.96619H59.0912V0ZM66.2109 11.8256V94.1406H5.85938V11.8256H12.9791V17.791H18.8385V11.8256H26.3962V17.791H32.2556V11.8256H39.814V17.791H45.6734V11.8256H53.2318V17.791H59.0912V11.8256H66.2109Z" fill="#E0E1E4"/>
<path d="M78.9917 5.17197V85.7826L87.7663 100H91.2247L100 85.7819V5.17197H78.9917ZM94.1406 11.0313V21.209H84.8511V11.0313H94.1406ZM84.8511 27.0683H94.1406V74.8077H84.8511V27.0683ZM89.4958 91.6458L84.8511 84.1202V80.6671H94.1406V84.1194L89.4958 91.6458Z" fill="#E0E1E4"/>
</svg>