<svg width="40" height="40" viewBox="0 0 40 40" fill="none" xmlns="http://www.w3.org/2000/svg">
<path d="M27.5 15.8C27.5 13.9965 26.7625 12.2669 25.4497 10.9917C24.137 9.71643 22.3565 9 20.5 9C18.6435 9 16.863 9.71643 15.5503 10.9917C14.2375 12.2669 13.5 13.9965 13.5 15.8C13.5 23.7333 10 26 10 26H31C31 26 27.5 23.7333 27.5 15.8Z" stroke="#FF690C" stroke-width="1.8" stroke-linecap="round" stroke-linejoin="round"/>
<path d="M25 27C24.5427 27.9125 23.8863 28.6699 23.0965 29.1964C22.3068 29.7229 21.4114 30 20.5 30C19.5886 30 18.6932 29.7229 17.9035 29.1964C17.1137 28.6699 16.4573 27.9125 16 27" stroke="#FF690C" stroke-width="1.8" stroke-linecap="round" stroke-linejoin="round"/>
</svg>
