<svg width="247" height="223" viewBox="0 0 247 223" fill="none" xmlns="http://www.w3.org/2000/svg">
<g clip-path="url(#clip0)">
<path d="M116.996 26.4015C104.965 32.2626 86.0179 28.8436 78.0483 26.4015V84.7692C96.5582 89.7052 111.726 86.8259 116.996 84.7692V26.4015Z" fill="#FF9236"/>
<path d="M135.844 111.576C133.433 113.335 127.238 114.807 124.442 115.323L127.211 123.06C131.772 121.757 134.867 114.861 135.844 111.576Z" fill="#2F2E41"/>
<path d="M63.4667 159.309C72.6384 158.454 76.9399 145.998 77.9443 139.877L102.137 156.783L96.7927 164.264L103.011 169.219L108.646 184.085L85.8139 202.059L57.6375 176.312L63.4667 159.309Z" fill="#F9DCCE"/>
<path d="M128.285 226.498L111.905 210.545L131.497 193.63L152.695 222.536L128.285 226.498Z" fill="#F9DCCE"/>
<path d="M8.48595 230.45L16.3986 193.174L42.9475 197.72L36.0373 230.45H8.48595Z" fill="#F9DCCE"/>
<path d="M30.2574 163.396C37.1166 157.118 57.6466 157.878 67.5345 157.991C77.5219 172.512 86.9931 179.297 89.94 178.185C98.9324 174.793 97.7081 165.606 96.8024 164.29C99.8017 164.609 109.501 168.074 113.201 170.581C120.028 175.209 133.046 188.612 138.701 194.735L113.201 211.859C111.116 217.368 110.719 225.818 110.781 229.355H33.3518L39.8252 206.014C26.8961 206.121 14.5632 194.294 9.7549 191.177C16.7003 177.607 26.3172 167.002 30.2574 163.396Z" fill="#B6E2FF"/>
<circle r="28.1405" transform="matrix(-1 0 0 1 104.169 132.48)" fill="#F9DCCE"/>
<path d="M93.8252 131.855C84.6775 136.118 80.3227 144.039 76.1527 146.85C76.0282 146.934 75.8643 146.908 75.771 146.791C70.7985 140.533 70.532 125.906 71.0446 118.696C72.502 98.195 94.6292 93.616 104.661 94.8119C116.398 96.211 129.778 106.162 132.061 92.2682C133.406 97.6483 132.274 102.953 131.352 105.497C131.261 105.747 131.51 105.999 131.758 105.903L136.492 104.063C133.513 121.187 112.876 119.775 104.98 116.593C104.77 116.509 104.542 116.502 104.332 116.587C98.713 118.872 95.0614 127.249 94.3664 131.144C94.3109 131.455 94.1114 131.722 93.8252 131.855Z" fill="#2F2E41"/>
<path d="M84.7254 221.878C57.6034 215.526 40.1914 216.206 35.5287 215.365L25.1418 230.45H36.8346H119.895C124.049 230.45 122.786 227.928 121.022 226.668C103.764 214.326 90.1028 218.56 84.7254 221.878Z" fill="#F9DCCE"/>
<path d="M59.7017 157.946L71.9211 154.317C74.3896 159.797 83.4535 171.448 91.5701 177.55C94.2431 176.285 97.3747 172.53 96.9078 164.293C98.4824 164.586 102.073 165.407 103.837 166.343C102.451 171.077 99.1249 181.464 96.9078 185.143L91.5701 177.55L83.1036 186.31C75.1548 181.076 62.5824 166.343 59.7017 157.946Z" fill="white"/>
<path d="M94.4106 226.612V229.852C94.4106 230.183 94.6789 230.451 95.0098 230.451H192.47C192.675 230.451 192.865 230.347 192.975 230.174L225.85 178.721C226.104 178.322 225.818 177.799 225.345 177.799H156.931C156.717 177.799 156.519 177.913 156.412 178.099L128.94 225.713C128.833 225.898 128.635 226.013 128.421 226.013H95.0098C94.6789 226.013 94.4106 226.281 94.4106 226.612Z" fill="#2F2E41"/>
<ellipse cx="175.181" cy="205.648" rx="4.81861" ry="5.96622" transform="rotate(29.7376 175.181 205.648)" fill="white"/>
<ellipse cx="89.0414" cy="130.7" rx="3.87387" ry="7.65342" fill="#F9DCCE"/>
<path d="M21.5136 230.45H4.17065L1.26782 203.529H24.4888L21.5136 230.45Z" fill="#FF590A"/>
<path d="M23.4857 212.603H2.24609L2.92649 218.913H22.7883L23.4857 212.603Z" fill="white"/>
<path d="M4.54198 193.489L3.05325 197.975C2.92453 198.363 3.21329 198.763 3.62195 198.763H22.1741C22.5711 198.763 22.8583 198.384 22.751 198.002L21.4911 193.516C21.4185 193.258 21.1827 193.079 20.9142 193.079H5.11068C4.85248 193.079 4.62331 193.244 4.54198 193.489Z" fill="white"/>
<rect x="0.614746" y="197.215" width="24.5272" height="6.82116" rx="0.599204" fill="white"/>
<path fill-rule="evenodd" clip-rule="evenodd" d="M8.4859 51.52C12.2331 51.52 15.2709 48.4823 15.2709 44.735C15.2709 40.9878 12.2331 37.9501 8.4859 37.9501C4.73866 37.9501 1.70093 40.9878 1.70093 44.735C1.70093 48.4823 4.73866 51.52 8.4859 51.52ZM6.92184 42.7873C6.92184 43.3567 7.35933 43.7222 8.71972 44.0758C10.0801 44.4294 11.5364 45.0107 11.5364 46.7127C11.5364 47.9412 10.6075 48.6184 9.43887 48.8402V50.1287H7.641V48.8282C6.49035 48.5825 5.50751 47.8454 5.4356 46.5329H6.75404C6.81997 47.2401 7.30539 47.7914 8.53993 47.7914C9.86437 47.7914 10.158 47.1322 10.158 46.7187C10.158 46.1613 9.85838 45.634 8.36015 45.2744C6.68812 44.8729 5.54347 44.1837 5.54347 42.7993C5.54347 41.6427 6.47837 40.8876 7.641 40.6359V39.3414H9.43887V40.6539C10.6914 40.9595 11.3207 41.9064 11.3626 42.9372H10.0382C10.0022 42.188 9.60667 41.6786 8.53993 41.6786C7.52713 41.6786 6.92184 42.1341 6.92184 42.7873Z" fill="white"/>
<path fill-rule="evenodd" clip-rule="evenodd" d="M239.679 130.888C243.426 130.888 246.464 127.85 246.464 124.103C246.464 120.356 243.426 117.318 239.679 117.318C235.932 117.318 232.894 120.356 232.894 124.103C232.894 127.85 235.932 130.888 239.679 130.888ZM238.115 122.155C238.115 122.725 238.552 123.09 239.913 123.444C241.273 123.797 242.73 124.379 242.73 126.081C242.73 127.309 241.801 127.986 240.632 128.208V129.497H238.834V128.196C237.683 127.951 236.701 127.213 236.629 125.901H237.947C238.013 126.608 238.499 127.159 239.733 127.159C241.057 127.159 241.351 126.5 241.351 126.087C241.351 125.529 241.051 125.002 239.553 124.642C237.881 124.241 236.737 123.552 236.737 122.167C236.737 121.011 237.671 120.256 238.834 120.004V118.709H240.632V120.022C241.885 120.328 242.514 121.274 242.556 122.305H241.231C241.195 121.556 240.8 121.047 239.733 121.047C238.72 121.047 238.115 121.502 238.115 122.155Z" fill="white"/>
<path fill-rule="evenodd" clip-rule="evenodd" d="M172.296 15.4174C176.043 15.4174 179.081 12.3796 179.081 8.63239C179.081 4.88515 176.043 1.84741 172.296 1.84741C168.549 1.84741 165.511 4.88515 165.511 8.63239C165.511 12.3796 168.549 15.4174 172.296 15.4174ZM170.732 6.68466C170.732 7.25399 171.169 7.61956 172.53 7.97314C173.89 8.32672 175.347 8.90804 175.347 10.61C175.347 11.8386 174.418 12.5158 173.249 12.7375V14.026H171.451V12.7255C170.301 12.4798 169.318 11.7427 169.246 10.4302H170.564C170.63 11.1374 171.116 11.6888 172.35 11.6888C173.675 11.6888 173.968 11.0295 173.968 10.616C173.968 10.0587 173.669 9.5313 172.17 9.17172C170.498 8.7702 169.354 8.08101 169.354 6.69665C169.354 5.54001 170.289 4.7849 171.451 4.5332V3.23873H173.249V4.55118C174.502 4.85682 175.131 5.8037 175.173 6.83448H173.848C173.812 6.08537 173.417 5.57597 172.35 5.57597C171.337 5.57597 170.732 6.03143 170.732 6.68466Z" fill="white"/>
<path d="M46.1279 100.318C34.4049 103.094 18.8773 99.1609 12.5789 96.8472V170.674C21.5253 177.77 39.4438 177.072 46.1279 175.273V100.318Z" fill="#FF9236"/>
<path fill-rule="evenodd" clip-rule="evenodd" d="M61.7293 56.9716C61.7846 57.0964 61.7273 57.2419 61.6014 57.2966C44.6784 64.6565 36.6735 78.2512 34.7922 84.0967C34.7504 84.2265 34.6103 84.2982 34.4793 84.2568C34.3483 84.2154 34.276 84.0767 34.3177 83.9469C36.2365 77.985 44.3303 64.2691 61.4012 56.8449C61.5271 56.7902 61.674 56.8469 61.7293 56.9716Z" fill="#FF590A"/>
<path fill-rule="evenodd" clip-rule="evenodd" d="M133.792 53.6425C133.793 53.5032 133.903 53.3917 134.037 53.3935C137.339 53.4378 142.873 54.0977 148.773 55.931C154.672 57.764 160.955 60.776 165.735 65.5378C165.832 65.6341 165.836 65.7938 165.743 65.8944C165.65 65.995 165.497 65.9985 165.4 65.9022C160.695 61.2156 154.491 58.2345 148.634 56.4144C142.778 54.5946 137.288 53.9416 134.031 53.8979C133.897 53.8961 133.79 53.7817 133.792 53.6425Z" fill="#FF590A"/>
<path fill-rule="evenodd" clip-rule="evenodd" d="M149.693 154.067C149.805 154.146 149.835 154.305 149.759 154.422C142.145 166.209 129.338 172.71 116.459 176.056C103.578 179.403 90.5885 179.604 82.5547 178.758C82.4197 178.744 82.3214 178.619 82.335 178.478C82.3486 178.338 82.4691 178.235 82.6041 178.249C90.5901 179.09 103.522 178.891 116.34 175.56C129.162 172.229 141.833 165.774 149.352 154.136C149.428 154.019 149.58 153.988 149.693 154.067Z" fill="#FF590A"/>
<path d="M191.421 62.6504C183.709 74.9902 171.755 78.8468 166.741 79.2327V161.37C176.305 159.21 187.179 150.187 191.421 145.945V62.6504Z" fill="#FF9236"/>
<path d="M29.2092 140.279L29.3098 138.833C32.8067 138.279 34.7438 136.417 34.7438 133.512C34.7438 130.329 32.2029 128.304 27.8129 128.304C26.9576 128.304 25.9764 128.367 25.272 128.468L25.511 131.776C26.0393 131.726 26.7437 131.675 27.423 131.675C29.8255 131.675 31.1211 132.405 31.1211 133.763C31.1211 135.235 29.8129 136.002 27.3853 136.002H26.1777V140.279H29.2092ZM27.6997 141.814C26.4167 141.814 25.2972 142.908 25.2972 144.204C25.2972 145.487 26.4167 146.606 27.6997 146.606C28.9702 146.606 30.0771 145.487 30.0771 144.191C30.0771 142.908 28.9702 141.814 27.6997 141.814Z" fill="white"/>
<path d="M97.82 61.3763L97.9206 59.9297C101.418 59.3763 103.355 57.5146 103.355 54.6089C103.355 51.4265 100.814 49.4013 96.4238 49.4013C95.5684 49.4013 94.5873 49.4642 93.8829 49.5649L94.1219 52.8731C94.6502 52.8227 95.3546 52.7724 96.0338 52.7724C98.4364 52.7724 99.732 53.502 99.732 54.8605C99.732 56.3322 98.4238 57.0995 95.9961 57.0995H94.7885V61.3763H97.82ZM96.3106 62.9109C95.0275 62.9109 93.908 64.0052 93.908 65.3008C93.908 66.5838 95.0275 67.7034 96.3106 67.7034C97.581 67.7034 98.6879 66.5838 98.6879 65.2882C98.6879 64.0052 97.581 62.9109 96.3106 62.9109Z" fill="white"/>
<path d="M179.209 117.932L179.291 116.749C182.152 116.296 183.737 114.773 183.737 112.396C183.737 109.792 181.658 108.135 178.066 108.135C177.367 108.135 176.564 108.186 175.987 108.269L176.183 110.975C176.615 110.934 177.192 110.893 177.747 110.893C179.713 110.893 180.773 111.49 180.773 112.601C180.773 113.805 179.703 114.433 177.716 114.433H176.728V117.932H179.209ZM177.974 119.188C176.924 119.188 176.008 120.083 176.008 121.143C176.008 122.193 176.924 123.109 177.974 123.109C179.013 123.109 179.919 122.193 179.919 121.133C179.919 120.083 179.013 119.188 177.974 119.188Z" fill="white"/>
</g>
<defs>
<clipPath id="clip0">
<rect width="247" height="229.847" fill="white" transform="translate(0 0.791672)"/>
</clipPath>
</defs>
</svg>
