<svg width="59" height="59" viewBox="0 0 59 59" fill="none" xmlns="http://www.w3.org/2000/svg">
<path d="M42.7067 32.3748C44.863 32.3748 46.7605 31.196 47.738 29.4135L58.0305 10.7548C59.0942 8.85726 57.7142 6.49976 55.5292 6.49976H12.9792L10.2767 0.749756H0.875488V6.49976H6.62549L16.9755 28.321L13.0942 35.336C10.9955 39.1885 13.7555 43.8748 18.1255 43.8748H52.6255V38.1248H18.1255L21.288 32.3748H42.7067ZM15.7105 12.2498H50.6417L42.7067 26.6248H22.5242L15.7105 12.2498ZM18.1255 46.7498C14.963 46.7498 12.4042 49.3373 12.4042 52.4998C12.4042 55.6623 14.963 58.2498 18.1255 58.2498C21.288 58.2498 23.8755 55.6623 23.8755 52.4998C23.8755 49.3373 21.288 46.7498 18.1255 46.7498ZM46.8755 46.7498C43.713 46.7498 41.1542 49.3373 41.1542 52.4998C41.1542 55.6623 43.713 58.2498 46.8755 58.2498C50.038 58.2498 52.6255 55.6623 52.6255 52.4998C52.6255 49.3373 50.038 46.7498 46.8755 46.7498Z" fill="#1F2939"/>
</svg>
