<svg width="418" height="339" viewBox="0 0 418 339" fill="none" xmlns="http://www.w3.org/2000/svg">
<path d="M30.3595 160.2C30.3595 149.162 39.3082 140.213 50.3469 140.213H181.24C192.278 140.213 201.227 149.162 201.227 160.2V219.736H50.3469C39.3082 219.736 30.3595 210.787 30.3595 199.749V160.2Z" fill="#EEF9FC"/>
<path d="M208.213 44.3104C208.213 33.2717 217.161 24.323 228.2 24.323H355.868C366.907 24.323 375.855 33.2717 375.855 44.3104V132.047C375.855 143.085 366.907 152.034 355.868 152.034H208.213V44.3104Z" fill="#EEF9FC"/>
<path d="M117.405 69.9308C117.405 58.892 126.354 49.9434 137.393 49.9434H286.017C297.055 49.9434 306.004 58.892 306.004 69.9307V175.032C306.004 186.071 297.055 195.019 286.017 195.019H117.405V69.9308Z" fill="#DCF3F9"/>
<path d="M75.1952 103.018C75.1952 94.8224 81.8389 88.1787 90.0343 88.1787H111.681C119.877 88.1787 126.52 94.8224 126.52 103.018V103.803C126.52 111.998 119.876 118.642 111.681 118.642H90.0343C81.8389 118.642 75.1952 111.998 75.1952 103.803V103.018Z" fill="#90BAD5"/>
<path d="M119.587 125.927V114.353L111.762 117.287L119.587 125.927Z" fill="#90BAD5"/>
<path d="M87.9161 98.2447C87.9161 98.0775 88.0517 97.9419 88.219 97.9419H113.496C113.663 97.9419 113.799 98.0775 113.799 98.2447V99.9478C113.799 100.115 113.663 100.251 113.496 100.251H88.219C88.0517 100.251 87.9161 100.115 87.9161 99.9478V98.2447Z" fill="white"/>
<path d="M87.9161 106.873C87.9161 106.705 88.0517 106.57 88.219 106.57H113.496C113.663 106.57 113.799 106.705 113.799 106.873V108.576C113.799 108.743 113.663 108.879 113.496 108.879H88.219C88.0517 108.879 87.9161 108.743 87.9161 108.576V106.873Z" fill="white"/>
<path d="M306.004 122.563C306.004 114.368 312.648 107.724 320.843 107.724H342.49C350.685 107.724 357.329 114.368 357.329 122.563V123.348C357.329 131.544 350.685 138.187 342.49 138.187H320.843C312.648 138.187 306.004 131.544 306.004 123.348V122.563Z" fill="#90BAD5"/>
<path d="M350.396 145.473V133.898L342.571 136.833L350.396 145.473Z" fill="#90BAD5"/>
<path d="M318.725 117.79C318.725 117.623 318.861 117.487 319.028 117.487H344.305C344.472 117.487 344.608 117.623 344.608 117.79V119.493C344.608 119.66 344.472 119.796 344.305 119.796H319.028C318.861 119.796 318.725 119.66 318.725 119.493V117.79Z" fill="white"/>
<path d="M318.725 126.418C318.725 126.251 318.861 126.115 319.028 126.115H344.305C344.472 126.115 344.608 126.251 344.608 126.418V128.121C344.608 128.288 344.472 128.424 344.305 128.424H319.028C318.861 128.424 318.725 128.288 318.725 128.121V126.418Z" fill="white"/>
<path d="M245.12 14.8391C245.12 6.6437 251.764 0 259.959 0H281.606C289.802 0 296.445 6.6437 296.445 14.8391V15.6242C296.445 23.8197 289.802 30.4634 281.606 30.4634H259.959C251.764 30.4634 245.12 23.8197 245.12 15.6242V14.8391Z" fill="#90BAD5"/>
<path d="M289.513 37.7491V26.1743L281.687 29.1088L289.513 37.7491Z" fill="#90BAD5"/>
<path d="M257.842 10.0663C257.842 9.89901 257.977 9.76343 258.144 9.76343H283.421C283.588 9.76343 283.724 9.89901 283.724 10.0663V11.7694C283.724 11.9366 283.588 12.0722 283.421 12.0722H258.144C257.977 12.0722 257.842 11.9366 257.842 11.7694V10.0663Z" fill="white"/>
<path d="M257.842 18.694C257.842 18.5267 257.977 18.3911 258.144 18.3911H283.421C283.588 18.3911 283.724 18.5267 283.724 18.694V20.3971C283.724 20.5643 283.588 20.6999 283.421 20.6999H258.144C257.977 20.6999 257.842 20.5643 257.842 20.3971V18.694Z" fill="white"/>
<path d="M193.676 217.134C201.469 212.888 199.981 194.031 200.677 184.238L242.678 184.238C241.983 197.43 244.354 210.69 249.167 217.134L232.221 236.55H216.913L193.676 217.134Z" fill="#A0616A"/>
<path d="M143.273 333.644V283.824L172.744 293.18V333.644H143.273Z" fill="#A0616A"/>
<path d="M312.07 333.644V281.813L282.599 293.18V333.644H312.07Z" fill="#A0616A"/>
<path d="M262.802 159.558C262.802 181.558 244.968 199.393 222.967 199.393C200.967 199.393 183.132 181.558 183.132 159.558C183.132 137.558 200.967 119.723 222.967 119.723C244.968 119.723 262.802 137.558 262.802 159.558Z" fill="#A0616A"/>
<path d="M188.687 155.5C187.569 165.86 186.228 170.953 185.197 172.05C183.044 169.178 181.187 153.356 178.518 145.73C174.052 132.968 178.983 124.328 182.007 121.603C179.694 116.578 184.566 111.666 187.291 109.839L188.687 111.633C191.798 103.657 203.542 101.265 209.025 101.065L207.231 104.654C218.636 95.4026 237.771 102.129 245.913 106.648L240.928 108.343C249.462 108.981 257.514 114.182 260.568 117.117C264.636 121.025 264.665 130.617 264.665 135.182C264.665 138.44 264.191 147.026 263.958 151.113C263.636 156.77 262.862 166.666 261.865 166.666C261.067 166.666 259.871 161.548 259.372 158.989C258.734 156.995 254.398 155.737 251.496 155.5C235.864 154.224 220.058 141.144 214.11 134.763C212.859 133.421 211.166 132.588 210.022 132.27C202.844 130.277 196.53 134.829 194.27 137.355C190.902 141.12 189.186 150.881 188.687 155.5Z" fill="#2F2E41"/>
<path d="M265.951 165.331C265.021 170.848 262.313 174.992 259.903 174.586C257.493 174.179 256.293 169.377 257.222 163.859C258.152 158.342 260.86 154.198 263.27 154.604C265.681 155.011 266.881 159.813 265.951 165.331Z" fill="#A0616A"/>
<path d="M179.75 165.331C180.68 170.848 183.388 174.992 185.798 174.586C188.209 174.179 189.409 169.377 188.479 163.859C187.549 158.342 184.841 154.198 182.431 154.604C180.02 155.011 178.82 159.813 179.75 165.331Z" fill="#A0616A"/>
<path d="M248.028 215.902C225.479 236.266 201.843 225.008 192.861 216.523C192.07 215.263 182.253 216.523 179.596 217.844C176.445 219.411 169.704 221.49 166.986 222.223C160.955 223.849 155.671 225.465 154.757 226.457C143.858 238.278 129.741 274.828 128.672 288.511L170.517 302.583V333.035H288.85V302.583L323.573 288.511C319.299 263.295 295.662 230.761 291.611 226.457C286.843 221.391 274.062 217.724 268.268 216.523C264.546 215.752 256.845 215.597 255.024 213.776C254.318 213.069 250.113 214.02 248.028 215.902Z" fill="#FF5404"/>
<path d="M242.896 255.891L229.353 272.544L229.357 272.68L214.856 256.844L206.877 254.232L207.879 288.209L219.065 293.302L218.506 274.351L229.876 290.278L229.872 290.142L240.284 273.58L240.843 292.532L251.71 286.796L250.712 252.954L242.896 255.891Z" fill="white"/>
<path d="M242.893 255.891L229.354 272.546L229.873 290.145L240.281 273.582L240.84 292.536L251.704 286.799L250.706 252.954L242.893 255.891Z" fill="#F4F7FC"/>
<path d="M256.915 159.756C256.915 156.505 259.551 153.869 262.802 153.869C266.053 153.869 268.689 156.505 268.689 159.756V175.146C268.689 178.398 266.053 181.033 262.802 181.033C259.551 181.033 256.915 178.398 256.915 175.146V159.756Z" fill="#FF5404"/>
<path d="M176.728 159.756C176.728 156.505 179.363 153.869 182.615 153.869C185.866 153.869 188.501 156.505 188.501 159.756V175.146C188.501 178.398 185.866 181.033 182.615 181.033C179.363 181.033 176.728 178.398 176.728 175.146V159.756Z" fill="#FF5404"/>
<path d="M266.866 155.352C267.573 149.141 266.955 142.851 265.051 136.897C263.148 130.943 260.002 125.46 255.823 120.812C251.644 116.163 246.526 112.455 240.807 109.931C235.088 107.407 228.899 106.125 222.648 106.17C216.397 106.215 210.227 107.586 204.546 110.193C198.864 112.799 193.8 116.581 189.688 121.29C185.577 125.998 182.511 131.525 180.693 137.506C178.876 143.487 178.348 149.786 179.146 155.986L182.521 155.552C181.785 149.829 182.272 144.016 183.949 138.496C185.627 132.975 188.456 127.874 192.251 123.528C196.046 119.182 200.72 115.691 205.964 113.286C211.209 110.88 216.903 109.615 222.673 109.573C228.442 109.531 234.155 110.714 239.433 113.044C244.711 115.374 249.435 118.797 253.292 123.087C257.15 127.378 260.053 132.438 261.81 137.933C263.567 143.429 264.138 149.234 263.485 154.967L266.866 155.352Z" fill="#FF5404"/>
<path d="M235.2 192.422C246.26 191.173 256.441 185.796 263.708 177.365L261.13 175.144C254.423 182.925 245.026 187.887 234.818 189.04L235.2 192.422Z" fill="#FF5404"/>
<path d="M232.654 189.591C232.654 187.873 234.046 186.481 235.764 186.481H237.414C239.132 186.481 240.524 187.873 240.524 189.591C240.524 191.308 239.132 192.701 237.414 192.701H235.764C234.046 192.701 232.654 191.308 232.654 189.591Z" fill="#FF5404"/>
<path d="M0 329.978C0 329.643 0.271172 329.372 0.605678 329.372H405.609C405.944 329.372 406.215 329.643 406.215 329.978V338.394C406.215 338.729 405.944 339 405.609 339H0.60567C0.271163 339 0 338.729 0 338.394V329.978Z" fill="#EAAB2D"/>
<path d="M172.974 329.372H43.1179C41.6854 329.372 40.4488 328.368 40.1542 326.966L25.2293 255.935C24.478 252.359 27.2065 248.998 30.8603 248.998H184.679C188.315 248.998 191.04 252.329 190.318 255.893L175.942 326.944C175.656 328.357 174.415 329.372 172.974 329.372Z" fill="#E6E6E6"/>
<path d="M117.594 293.407C117.594 298.848 113.184 303.259 107.743 303.259C102.302 303.259 97.8914 298.848 97.8914 293.407C97.8914 287.966 102.302 283.556 107.743 283.556C113.184 283.556 117.594 287.966 117.594 293.407Z" fill="#FBFBFD"/>
<path d="M353.466 271.997C357.768 279.928 366.236 279.414 369.869 277.988C377.608 274.95 378.236 268.846 377.558 266.333C376.265 261.537 380.171 260.787 382.269 260.691C383.744 260.624 385.785 260.005 387.002 259.237C390.543 257.005 391.169 251.277 390.287 248.087C389.123 243.876 394.529 240.882 396.995 240.049C405.53 237.167 404.69 224.495 401.173 218.684C397.79 213.095 388.939 214.263 384.962 215.59C375.787 218.651 374.035 227.22 374.306 231.122C374.62 235.65 372.145 235.534 369.463 235.995C363.59 237.003 359.295 240.48 357.957 242.133C355.263 245.46 357.454 251.292 358.886 253.792C360.557 256.712 357.269 259.426 355.221 260.635C350.289 263.548 352.376 269.988 353.466 271.997Z" fill="#ACE63A"/>
<path fill-rule="evenodd" clip-rule="evenodd" d="M390.659 225.301C390.848 225.479 390.856 225.776 390.678 225.964C383.654 233.4 377.003 244.845 371.538 256.164C366.077 267.474 361.82 278.616 359.571 285.415C359.49 285.661 359.224 285.795 358.978 285.714C358.732 285.632 358.599 285.367 358.68 285.121C360.94 278.286 365.213 267.105 370.693 255.756C376.169 244.415 382.87 232.864 389.995 225.32C390.174 225.131 390.471 225.123 390.659 225.301Z" fill="#ACE63A"/>
<path d="M356.679 274.5C353.154 280.998 346.216 280.577 343.24 279.409C336.899 276.92 336.385 271.918 336.94 269.859C338 265.929 334.799 265.315 333.08 265.237C331.871 265.181 330.199 264.674 329.202 264.045C326.301 262.216 325.788 257.523 326.51 254.909C327.464 251.459 323.034 249.006 321.014 248.324C314.021 245.962 314.709 235.579 317.591 230.818C320.363 226.238 327.615 227.196 330.873 228.283C338.391 230.791 339.826 237.812 339.605 241.009C339.347 244.719 341.375 244.624 343.572 245.002C348.384 245.828 351.904 248.676 353 250.031C355.207 252.757 353.412 257.535 352.239 259.584C350.869 261.976 353.564 264.2 355.241 265.19C359.283 267.577 357.572 272.854 356.679 274.5Z" fill="#ACE63A"/>
<path fill-rule="evenodd" clip-rule="evenodd" d="M326.205 236.24C326.051 236.386 326.044 236.629 326.19 236.784C331.945 242.876 337.394 252.254 341.872 261.528C346.347 270.794 349.835 279.924 351.677 285.495C351.744 285.696 351.961 285.806 352.163 285.739C352.365 285.672 352.474 285.455 352.408 285.253C350.556 279.653 347.055 270.492 342.565 261.193C338.078 251.901 332.588 242.436 326.749 236.255C326.603 236.101 326.36 236.094 326.205 236.24Z" fill="#ACE63A"/>
<path d="M357.682 256.11C351.688 261.864 344.401 259.044 341.613 256.776C335.673 251.944 336.83 246.412 338.128 244.397C340.606 240.55 337.388 238.799 335.574 238.128C334.298 237.656 332.681 236.542 331.828 235.527C329.346 232.578 330.4 227.377 332.067 224.824C334.266 221.455 330.361 217.315 328.43 215.894C321.748 210.976 326.032 200.092 330.744 195.978C335.277 192.02 342.716 195.523 345.835 197.8C353.028 203.054 352.167 211.063 350.838 214.411C349.295 218.297 351.498 218.888 353.723 220.042C358.594 222.571 361.39 226.824 362.101 228.649C363.533 232.322 359.979 236.826 358.023 238.619C355.739 240.713 357.864 244.015 359.322 245.649C362.835 249.585 359.201 254.652 357.682 256.11Z" fill="#ACE63A"/>
<path fill-rule="evenodd" clip-rule="evenodd" d="M338.118 204.727C337.902 204.83 337.812 205.089 337.915 205.304C341.997 213.794 344.629 225.698 346.257 237.159C347.883 248.612 348.5 259.58 348.57 266.175C348.572 266.414 348.768 266.605 349.006 266.603C349.245 266.6 349.437 266.405 349.434 266.166C349.364 259.537 348.745 248.53 347.113 237.038C345.482 225.554 342.836 213.543 338.695 204.929C338.591 204.714 338.333 204.623 338.118 204.727Z" fill="#ACE63A"/>
<path d="M346.17 282.688C351.91 285.272 359.091 278.56 361.864 274.798C367.771 266.784 366.754 261.848 365.527 260.516C363.186 257.974 366.368 254.502 368.154 252.862C369.411 251.709 371.015 249.729 371.871 248.256C374.358 243.974 373.436 239.313 371.86 237.639C369.78 235.429 373.684 229.192 375.6 226.738C382.234 218.241 378.273 209.597 373.753 207.977C369.404 206.418 362.06 213.897 358.964 217.844C351.824 226.949 352.498 234.531 353.728 237.184C355.156 240.262 352.989 242.029 350.791 244.373C345.977 249.506 343.156 255.264 342.422 257.475C340.946 261.925 344.327 264.554 346.202 265.312C348.391 266.197 346.244 270.644 344.785 273.061C341.269 278.883 344.716 282.034 346.17 282.688Z" fill="#ACE63A"/>
<path fill-rule="evenodd" clip-rule="evenodd" d="M366.363 220.686C366.572 220.676 366.655 220.887 366.549 221.158C362.383 231.856 359.562 245.207 357.733 257.579C355.905 269.942 355.074 281.281 354.868 287.939C354.861 288.18 354.666 288.476 354.432 288.601C354.199 288.726 354.016 288.631 354.023 288.39C354.23 281.698 355.064 270.319 356.899 257.913C358.731 245.517 361.568 232.05 365.795 221.197C365.901 220.926 366.155 220.697 366.363 220.686Z" fill="#ACE63A"/>
<path d="M337.785 327.651L328.746 280.534C328.459 279.041 329.604 277.655 331.125 277.655H381.4C382.925 277.655 384.07 279.047 383.777 280.544L374.546 327.66C374.351 328.654 373.48 329.372 372.466 329.372H339.867C338.85 329.372 337.976 328.65 337.785 327.651Z" fill="#5288E8"/>
<path d="M287.407 289.902C287.407 288.732 288.356 287.782 289.527 287.782H315.631C316.802 287.782 317.751 288.732 317.751 289.902V318.784C317.751 324.805 312.87 329.686 306.849 329.686H298.309C292.288 329.686 287.407 324.805 287.407 318.784V289.902Z" fill="#90BAD5"/>
<path fill-rule="evenodd" clip-rule="evenodd" d="M275.312 297.069C272.786 293.456 275.371 288.495 279.779 288.495H290.437V292.129H279.779C278.31 292.129 277.448 293.782 278.29 294.987L291.926 314.49L288.947 316.573L275.312 297.069Z" fill="#90BAD5"/>
</svg>
