<svg width="180" height="33" viewBox="0 0 180 33" fill="none" xmlns="http://www.w3.org/2000/svg">
<path d="M51.3984 26.1558V25.5288H51.2362L51.0486 25.9591L50.8621 25.5288H50.6994V26.1558H50.8146V25.6835L50.99 26.091H51.1094L51.2848 25.6824V26.1558H51.3989H51.3984ZM50.3696 26.1558V25.6362H50.5772V25.5304H50.0469V25.6362H50.2544V26.1558H50.3686H50.3696Z" fill="#F79410"/>
<path d="M32.9667 28.8447H18.9336V3.45239H32.967L32.9667 28.8447Z" fill="#FF5F00"/>
<path d="M19.8227 16.1482C19.8227 10.9974 22.218 6.40902 25.948 3.45207C23.1246 1.21051 19.6325 -0.00606395 16.0369 -0.000714858C7.17976 -0.000714858 0 7.22931 0 16.1482C0 25.0672 7.17976 32.2972 16.0369 32.2972C19.6326 32.3026 23.1248 31.086 25.9483 28.8444C22.2186 25.888 19.8227 21.2993 19.8227 16.1482Z" fill="#EB001B"/>
<path d="M51.8978 16.149C51.8978 25.0679 44.7181 32.2979 35.8609 32.2979C32.2649 32.3032 28.7723 31.0867 25.9482 28.8451C29.6793 25.8882 32.0746 21.3001 32.0746 16.149C32.0746 10.9979 29.6793 6.40976 25.9482 3.4528C28.7722 1.21131 32.2647 -0.00523777 35.8606 1.69516e-05C44.7178 1.69516e-05 51.8976 7.23004 51.8976 16.149" fill="#F79E1B"/>
<path d="M177.778 22.8318V23.0923H178.019C178.064 23.093 178.109 23.0815 178.148 23.059C178.164 23.0478 178.176 23.0329 178.185 23.0154C178.193 22.998 178.197 22.9788 178.197 22.9594C178.197 22.9404 178.193 22.9215 178.185 22.9045C178.176 22.8875 178.164 22.873 178.148 22.8624C178.109 22.8388 178.064 22.8273 178.019 22.8292H177.778V22.8318ZM178.022 22.6475C178.125 22.6411 178.227 22.671 178.311 22.7321C178.344 22.7599 178.371 22.7952 178.389 22.8352C178.406 22.8753 178.414 22.9189 178.412 22.9627C178.414 23.0003 178.407 23.0379 178.393 23.0728C178.379 23.1077 178.358 23.1392 178.331 23.1652C178.266 23.2219 178.185 23.2559 178.1 23.2622L178.422 23.6334H178.174L177.877 23.2648H177.781V23.6334H177.573V22.6481H178.025L178.022 22.6475ZM177.957 23.9733C178.066 23.9744 178.174 23.9522 178.274 23.9082C178.37 23.8664 178.458 23.8065 178.532 23.7317C178.606 23.6571 178.666 23.5686 178.707 23.4712C178.792 23.2648 178.792 23.033 178.707 22.8266C178.665 22.7295 178.606 22.6412 178.532 22.5661C178.458 22.4914 178.37 22.4315 178.274 22.3896C178.173 22.348 178.066 22.3272 177.957 22.3284C177.847 22.3274 177.737 22.3482 177.634 22.3896C177.536 22.4307 177.446 22.4906 177.371 22.5661C177.256 22.6842 177.179 22.8337 177.149 22.9958C177.118 23.1579 177.135 23.3255 177.198 23.4778C177.238 23.5755 177.296 23.6641 177.371 23.7382C177.446 23.8137 177.536 23.8736 177.634 23.9147C177.736 23.9587 177.846 23.9808 177.957 23.9798V23.9733ZM177.957 22.0914C178.241 22.0911 178.513 22.2033 178.715 22.4039C178.813 22.5002 178.891 22.6151 178.944 22.7419C178.999 22.8721 179.027 23.0122 179.027 23.1538C179.027 23.2954 178.999 23.4355 178.944 23.5657C178.889 23.6918 178.812 23.8064 178.715 23.9036C178.616 23.9994 178.501 24.0766 178.375 24.1316C178.243 24.1882 178.101 24.2171 177.957 24.2162C177.812 24.2173 177.668 24.1885 177.534 24.1316C177.406 24.0779 177.29 24.0006 177.191 23.9036C177.095 23.8028 177.018 23.6844 176.966 23.5546C176.911 23.4244 176.882 23.2843 176.882 23.1427C176.882 23.0011 176.911 22.861 176.966 22.7308C177.019 22.6041 177.097 22.4892 177.194 22.3929C177.292 22.2942 177.409 22.2167 177.537 22.1649C177.671 22.108 177.815 22.0792 177.96 22.0803L177.957 22.0914ZM79.1505 18.2864C79.1505 16.4077 80.3701 14.8644 82.3634 14.8644C84.2683 14.8644 85.5537 16.3413 85.5537 18.2864C85.5537 20.2315 84.2683 21.7085 82.3634 21.7085C80.3701 21.7085 79.1505 20.1651 79.1505 18.2864ZM87.7251 18.2864V12.9401H85.422V14.2425C84.6916 13.28 83.5836 12.6763 82.0769 12.6763C79.1085 12.6763 76.779 15.0259 76.779 18.289C76.779 21.5522 79.1073 23.9017 82.0769 23.9017C83.583 23.9017 84.6916 23.2974 85.422 22.3356V23.6334H87.7225V18.2864H87.7251ZM165.542 18.2864C165.542 16.4077 166.761 14.8644 168.755 14.8644C170.662 14.8644 171.946 16.3413 171.946 18.2864C171.946 20.2315 170.662 21.7085 168.755 21.7085C166.762 21.7085 165.542 20.1651 165.542 18.2864ZM174.119 18.2864V8.64868H171.814V14.2425C171.084 13.28 169.976 12.6763 168.469 12.6763C165.5 12.6763 163.171 15.0259 163.171 18.289C163.171 21.5522 165.499 23.9017 168.469 23.9017C169.976 23.9017 171.084 23.2974 171.814 22.3356V23.6334H174.119V18.2864ZM116.309 14.7543C117.793 14.7543 118.746 15.6933 118.989 17.3467H113.494C113.74 15.8034 114.668 14.7543 116.309 14.7543ZM116.355 12.6705C113.251 12.6705 111.08 14.9497 111.08 18.2832C111.08 21.6818 113.339 23.8958 116.509 23.8958C118.105 23.8958 119.566 23.494 120.851 22.3981L119.722 20.6757C118.834 21.392 117.704 21.7938 116.641 21.7938C115.157 21.7938 113.806 21.1002 113.473 19.1759H121.338C121.36 18.8868 121.383 18.5951 121.383 18.2825C121.36 14.9503 119.318 12.6698 116.354 12.6698L116.355 12.6705ZM144.159 18.2825C144.159 16.4038 145.379 14.8605 147.372 14.8605C149.277 14.8605 150.563 16.3374 150.563 18.2825C150.563 20.2276 149.277 21.7045 147.372 21.7045C145.379 21.7045 144.159 20.1612 144.159 18.2825ZM152.733 18.2825V12.9401H150.432V14.2425C149.699 13.28 148.593 12.6763 147.087 12.6763C144.118 12.6763 141.789 15.0259 141.789 18.289C141.789 21.5522 144.117 23.9017 147.087 23.9017C148.593 23.9017 149.699 23.2974 150.432 22.3356V23.6334H152.734V18.2864L152.733 18.2825ZM131.154 18.2825C131.154 21.5248 133.39 23.8952 136.804 23.8952C138.399 23.8952 139.462 23.537 140.611 22.6208L139.505 20.7421C138.64 21.3692 137.732 21.7045 136.73 21.7045C134.892 21.6818 133.54 20.3403 133.54 18.2825C133.54 16.2247 134.892 14.8839 136.73 14.8605C137.73 14.8605 138.638 15.1958 139.505 15.8229L140.611 13.9442C139.46 13.028 138.397 12.6698 136.804 12.6698C133.39 12.6698 131.154 15.0395 131.154 18.2825ZM160.843 12.6698C159.515 12.6698 158.649 13.2969 158.051 14.236V12.9401H155.769V23.6275H158.074V17.6365C158.074 15.8679 158.828 14.8852 160.333 14.8852C160.826 14.878 161.315 14.9694 161.773 15.1542L162.483 12.9635C161.973 12.761 161.309 12.6718 160.842 12.6718L160.843 12.6698ZM99.1112 13.7899C98.0032 13.0527 96.4765 12.6718 94.7923 12.6718C92.1092 12.6718 90.3817 13.9696 90.3817 16.0932C90.3817 17.8358 91.6678 18.9109 94.036 19.2463L95.124 19.4026C96.3868 19.5816 96.983 19.917 96.983 20.5207C96.983 21.347 96.1442 21.8185 94.569 21.8185C92.9739 21.8185 91.8227 21.3041 91.0464 20.7004L89.9642 22.5127C91.2271 23.4517 92.8222 23.8997 94.5497 23.8997C97.6083 23.8997 99.3809 22.4463 99.3809 20.4113C99.3809 18.5326 97.9858 17.5499 95.6809 17.2145L94.5955 17.0556C93.5985 16.9254 92.7996 16.7229 92.7996 16.0066C92.7996 15.2251 93.5527 14.755 94.8162 14.755C96.168 14.755 97.4767 15.2694 98.1181 15.6712L99.1151 13.7925L99.1112 13.7899ZM128.827 12.6737C127.499 12.6737 126.633 13.3008 126.038 14.2399V12.9401H123.755V23.6275H126.058V17.6365C126.058 15.8679 126.812 14.8852 128.317 14.8852C128.81 14.878 129.299 14.9694 129.757 15.1542L130.467 12.9635C129.957 12.761 129.293 12.6718 128.826 12.6718L128.827 12.6737ZM109.174 12.9401H105.409V9.69776H103.08V12.9401H100.932V15.0643H103.08V19.9398C103.08 22.4196 104.034 23.8965 106.759 23.8965C107.758 23.8965 108.909 23.5839 109.64 23.0701L108.974 21.0801C108.287 21.4818 107.534 21.6844 106.935 21.6844C105.784 21.6844 105.409 20.968 105.409 19.8955V15.0662H109.174V12.9401ZM74.7425 23.6301V16.9228C74.7425 14.3968 73.1474 12.6972 70.5759 12.6744C69.224 12.6516 67.8295 13.0762 66.8532 14.5759C66.1227 13.3907 64.9716 12.6744 63.3532 12.6744C62.222 12.6744 61.1166 13.0098 60.2513 14.2614V12.9401H57.9463V23.6275H60.2693V17.7016C60.2693 15.8464 61.2889 14.8605 62.8634 14.8605C64.3927 14.8605 65.1664 15.8666 65.1664 17.6782V23.6262H67.4946V17.7003C67.4946 15.8451 68.5574 14.8592 70.0861 14.8592C71.6587 14.8592 72.4092 15.8653 72.4092 17.6769V23.6249L74.7425 23.6301Z" fill="#231F20"/>
</svg>
