<svg width="37" height="22" viewBox="0 0 37 22" fill="none" xmlns="http://www.w3.org/2000/svg">
<path d="M23.2363 2.46143H13.7334V19.5364H23.2363V2.46143Z" fill="#FF5F00"/>
<path d="M14.3363 10.9993C14.3363 7.53003 15.9654 4.45292 18.4693 2.46184C16.629 1.01379 14.3061 0.138916 11.772 0.138916C5.76864 0.138916 0.911621 4.99593 0.911621 10.9993C0.911621 17.0027 5.76864 21.8597 11.772 21.8597C14.3061 21.8597 16.629 20.9849 18.4693 19.5368C15.9654 17.5759 14.3363 14.4686 14.3363 10.9993Z" fill="#EB001B"/>
<path d="M36.0577 10.9988C36.0577 17.0022 31.2007 21.8593 25.1973 21.8593C22.6632 21.8593 20.3402 20.9844 18.5 19.5363C21.0341 17.5453 22.633 14.4681 22.633 10.9988C22.633 7.52954 21.0039 4.45243 18.5 2.46135C20.3402 1.0133 22.6632 0.138428 25.1973 0.138428C31.2007 0.138428 36.0577 5.02561 36.0577 10.9988Z" fill="#F79E1B"/>
</svg>
