<svg width="144" height="94" viewBox="0 0 144 94" fill="none" xmlns="http://www.w3.org/2000/svg">
<path d="M143.868 92.2549C143.947 92.012 144 91.7558 144 91.4862V2.51049C144 2.23917 143.947 1.98126 143.866 1.73674C143.855 1.70325 143.848 1.66975 143.835 1.63625C143.728 1.34987 143.571 1.09195 143.374 0.865858C143.36 0.850785 143.359 0.832364 143.345 0.817291C143.337 0.808917 143.327 0.805566 143.318 0.797192C143.108 0.572772 142.859 0.391897 142.58 0.25624C142.558 0.246191 142.542 0.232793 142.52 0.222744C142.256 0.103835 141.969 0.0368454 141.666 0.0167481C141.636 0.0150733 141.608 0.00837246 141.578 0.00837246C141.549 0.00669769 141.524 0 141.496 0H2.50733C2.47893 0 2.4522 0.00669769 2.4238 0.00837246C2.39708 0.0100472 2.37035 0.0150733 2.34362 0.0167481C2.03793 0.0368454 1.74561 0.105511 1.47834 0.226095C1.46163 0.232794 1.44827 0.244516 1.43156 0.251215C1.14759 0.386872 0.895354 0.571096 0.683208 0.798866C0.674856 0.80724 0.664833 0.808917 0.656481 0.817291C0.643118 0.830689 0.641448 0.849111 0.628084 0.864184C0.430973 1.09028 0.272281 1.34987 0.165373 1.63625C0.15201 1.66975 0.145328 1.70324 0.133635 1.73841C0.0534538 1.98293 0 2.24085 0 2.51216V91.4895C0 91.7642 0.055124 92.0254 0.136975 92.2733C0.148668 92.3068 0.15535 92.3386 0.167044 92.3721C0.275622 92.6602 0.435983 92.9198 0.634765 93.1459C0.646458 93.1593 0.6498 93.176 0.661493 93.1894C0.671515 93.2011 0.684879 93.2078 0.696572 93.2196C0.778423 93.305 0.868627 93.3803 0.962171 93.454C1.00393 93.4859 1.04068 93.5244 1.08411 93.5545C1.19436 93.6316 1.31296 93.6935 1.4349 93.7505C1.46497 93.7639 1.4917 93.7856 1.52177 93.7973C1.82412 93.9263 2.15653 94 2.50565 94H141.493C141.842 94 142.174 93.928 142.477 93.7973C142.523 93.7773 142.567 93.7471 142.612 93.7237C142.715 93.6717 142.819 93.6182 142.914 93.5528C142.964 93.5177 143.009 93.4725 143.058 93.4339C143.143 93.3653 143.227 93.2966 143.3 93.2179C143.313 93.2045 143.328 93.1944 143.342 93.181C143.355 93.166 143.359 93.1459 143.372 93.1308C143.567 92.9064 143.724 92.6485 143.831 92.3638C143.848 92.3269 143.856 92.2917 143.868 92.2549ZM5.01298 8.20807L47.1865 46.83L5.01298 85.7601V8.20807ZM91.4514 44.9375C91.2777 45.0514 91.0939 45.1469 90.9486 45.3076C90.8935 45.3679 90.8751 45.4466 90.8267 45.5103L72.0008 62.7504L8.96523 5.02265H135.036L91.4514 44.9375ZM50.9016 50.2315L70.3103 68.0058C70.7898 68.4446 71.3945 68.664 72.0008 68.664C72.6072 68.664 73.2119 68.4446 73.6896 68.0058L92.8579 50.4525L135.025 88.9757H8.92848L50.9016 50.2315ZM96.5746 47.0494L138.989 8.20807V85.8003L96.5746 47.0494Z" fill="#BDBDBD"/>
</svg>
