<?xml version="1.0" encoding="utf-8"?>
<!-- Generator: Adobe Illustrator 20.1.0, SVG Export Plug-In . SVG Version: 6.00 Build 0)  -->
<svg version="1.1" id="svg14712" xmlns:svg="http://www.w3.org/2000/svg"
	 xmlns="http://www.w3.org/2000/svg" xmlns:xlink="http://www.w3.org/1999/xlink" x="0px" y="0px" viewBox="0 0 721 271"
	 style="enable-background:new 0 0 721 271;" xml:space="preserve">
<style type="text/css">
	.st0{fill:#002F86;}
	.st1{fill:#009CDE;}
</style>
<path id="path14519" class="st0" d="M394.9,124.8h-26.4c-2.5,0-4.9,1.3-6.3,3.3l-36.4,53.6l-15.4-51.5c-1-3.2-3.9-5.4-7.3-5.4h-25.9
	c-3.1,0-5.3,3.1-4.3,6l29.1,85.3l-27.3,38.6c-2.1,3,0,7.2,3.7,7.2h26.4c2.5,0,4.8-1.2,6.3-3.3L398.7,132
	C400.8,128.9,398.6,124.8,394.9,124.8 M218.4,175.9c-2.5,15-14.4,25.1-29.6,25.1c-7.6,0-13.7-2.5-17.6-7.1
	c-3.9-4.6-5.3-11.2-4.1-18.4c2.4-14.9,14.5-25.3,29.4-25.3c7.5,0,13.5,2.5,17.5,7.2C218,162.1,219.6,168.7,218.4,175.9 M255,124.8
	h-26.3c-2.2,0-4.2,1.6-4.5,3.9l-1.2,7.3l-1.8-2.7c-5.7-8.3-18.4-11-31-11c-29,0-53.8,22-58.6,52.8c-2.5,15.4,1.1,30.1,9.8,40.4
	c8,9.4,19.4,13.4,33.1,13.4c23.4,0,36.4-15,36.4-15l-1.2,7.3c-0.4,2.8,1.7,5.3,4.5,5.3h23.6c3.8,0,6.9-2.7,7.5-6.4l14.2-89.9
	C260,127.3,257.8,124.8,255,124.8 M97.4,125.4c-3,19.7-18,19.7-32.6,19.7h-8.3l5.8-36.8c0.3-2.2,2.3-3.9,4.5-3.9h3.8
	c9.9,0,19.2,0,24.1,5.6C97.6,113.5,98.5,118.5,97.4,125.4 M91.1,74.1H36.2c-3.8,0-6.9,2.7-7.5,6.4L6.5,221.1
	c-0.4,2.8,1.7,5.3,4.5,5.3h26.2c3.7,0,6.9-2.7,7.5-6.4l6-37.9c0.6-3.7,3.8-6.4,7.5-6.4h17.4c36.1,0,57-17.5,62.4-52.1
	c2.5-15.1,0.1-27.1-7-35.4C123.3,78.9,109.4,74.1,91.1,74.1"/>
<path id="path14523" class="st1" d="M677.2,77.9l-22.5,143.2c-0.4,2.8,1.7,5.3,4.5,5.3h22.6c3.7,0,6.9-2.7,7.5-6.4l22.2-140.6
	c0.4-2.8-1.7-5.3-4.5-5.3h-25.3C679.5,74.1,677.5,75.7,677.2,77.9 M609.6,175.9c-2.5,15-14.4,25.1-29.6,25.1
	c-7.6,0-13.7-2.5-17.6-7.1c-3.9-4.6-5.3-11.2-4.1-18.4c2.4-14.9,14.5-25.3,29.4-25.3c7.5,0,13.5,2.5,17.5,7.2
	C609.2,162.1,610.8,168.7,609.6,175.9 M646.2,124.8H620c-2.2,0-4.2,1.6-4.5,3.9l-1.2,7.3l-1.8-2.7c-5.7-8.3-18.4-11-31-11
	c-29,0-53.8,22-58.6,52.8c-2.5,15.4,1.1,30.1,9.8,40.4c8,9.4,19.4,13.4,33.1,13.4c23.4,0,36.4-15,36.4-15l-1.2,7.3
	c-0.4,2.8,1.7,5.3,4.5,5.3H629c3.8,0,6.9-2.7,7.5-6.4l14.2-89.9C651.2,127.3,649,124.8,646.2,124.8 M488.6,125.4
	c-3,19.7-18,19.7-32.6,19.7h-8.3l5.8-36.8c0.3-2.2,2.3-3.9,4.5-3.9h3.8c9.9,0,19.2,0,24.1,5.6C488.8,113.5,489.7,118.5,488.6,125.4
	 M482.3,74.1h-54.8c-3.8,0-6.9,2.7-7.5,6.4l-22.2,140.6c-0.4,2.8,1.7,5.3,4.5,5.3h28.1c2.6,0,4.9-1.9,5.3-4.5l6.3-39.9
	c0.6-3.7,3.8-6.4,7.5-6.4h17.4c36.1,0,57-17.5,62.4-52.1c2.5-15.1,0.1-27.1-7-35.4C514.5,78.9,500.6,74.1,482.3,74.1"/>
</svg>
