<svg width="40" height="40" viewBox="0 0 40 40" fill="none" xmlns="http://www.w3.org/2000/svg">
<path d="M10.56 19.0325C10.8685 18.7162 11.2086 18.4275 11.6752 18.4275C12.0232 18.4275 12.304 18.6529 12.304 19.0088C12.304 19.2658 12.1774 19.511 11.9283 19.7483L10.0459 21.5239V22.6667H13.9293V21.3182H12.1063L12.8972 20.5669C13.5813 19.9183 13.8186 19.4675 13.8186 18.8229C13.8186 17.7275 13.0356 17.0276 11.8571 17.0276C10.7736 17.0276 10.1092 17.5772 9.73353 18.0241L10.56 19.0325ZM18.1878 18.9851H17.1636L16.7286 19.9381V20.4285H16.0405L17.5868 17.1304H15.997L14.3005 20.7765V21.777H16.7286V22.6667H18.1878V21.777H18.8166V20.4285H18.1878V18.9851ZM23.4763 16.5767H22.0408L18.6834 23.4577H20.1189L23.4763 16.5767ZM27.7288 17.1304H23.6398V18.4789H25.9967L23.8889 22.6667H25.6369L27.7288 18.2772V17.1304Z" fill="#FF690C"/>
<path d="M33.7714 19.5L33.1819 20.1124L33.9306 20.833L34.4885 19.9563L33.7714 19.5ZM18.9918 34.85C19.4612 34.85 19.8418 34.4694 19.8418 34C19.8418 33.5306 19.4612 33.15 18.9918 33.15V34.85ZM28.4815 8.38333L29.0215 7.72687L28.4815 8.38333ZM31.1652 15.8118C30.827 15.4863 30.2889 15.4966 29.9634 15.8348C29.6378 16.173 29.6481 16.7111 29.9863 17.0367L31.1652 15.8118ZM37.005 16.0018C37.2571 15.6057 37.1403 15.0804 36.7443 14.8283C36.3482 14.5763 35.8228 14.6931 35.5708 15.0891L37.005 16.0018ZM18.9918 33.15C11.2833 33.15 5.06216 27.0235 5.06216 19.5H3.36216C3.36216 27.9928 10.3752 34.85 18.9918 34.85V33.15ZM5.06216 19.5C5.06216 11.9765 11.2833 5.85 18.9918 5.85V4.15C10.3752 4.15 3.36216 11.0072 3.36216 19.5H5.06216ZM18.9918 5.85C22.4017 5.85 25.5219 7.04956 27.9415 9.0398L29.0215 7.72687C26.3062 5.49353 22.8068 4.15 18.9918 4.15V5.85ZM27.9415 9.0398C30.9901 11.5473 32.9214 15.3042 32.9214 19.5H34.6214C34.6214 14.7679 32.4405 10.5391 29.0215 7.72687L27.9415 9.0398ZM34.3608 18.8876L31.1652 15.8118L29.9863 17.0367L33.1819 20.1124L34.3608 18.8876ZM34.4885 19.9563L37.005 16.0018L35.5708 15.0891L33.0543 19.0437L34.4885 19.9563Z" fill="#FF690C"/>
</svg>
