<svg id="Слой_1" xmlns="http://www.w3.org/2000/svg" viewBox="0 0 113 73"><style>.st1{fill:#e0e1e4}</style><path d="M50.7 64.4c-.6 5.1-5.5 9-10.5 8.5-5.1-.6-9-5.5-8.4-10.6.6-5.1 5.5-8.9 10.6-8.3 5 .5 8.9 5.3 8.3 10.4zM37.1 47.2l2-16.9 4.8.6c9.6 1.1 15.1-1.3 15.8-7.1.6-5.4-4.2-8.8-13.7-9.9-2.7-.3-5.5-.4-7.6-.5L39 .2c2.7-.2 6.6 0 10 .4 17.3 2 26.4 11.2 25 23.7-1.3 11.5-9.8 17.9-23.9 18.5L49 48.6l-11.9-1.4z" fill="#cfd2d6"/><path class="st1" d="M83.9 61.5c-1.8 3.1-6.1 4.2-9.1 2.4-3.1-1.8-4.2-6.1-2.4-9.2 1.8-3.1 6.1-4.1 9.1-2.3 3.1 1.8 4.2 6 2.4 9.1zm-3.8-14.9l6-10.3L89 38c5.8 3.4 10 3.4 12.1-.1 1.9-3.3-.2-6.8-5.9-10.2-1.6-1-3.4-1.8-4.7-2.5l4.1-8.3c1.8.8 4.3 2 6.3 3.2 10.5 6.2 13.7 14.7 9.2 22.3-4.1 7-11.4 8.7-20.5 5.1l-2.3 3.3-7.2-4.2zM13.6 49.2l-4.3-6.7 1.9-1.2c3.8-2.5 5.1-5 3.6-7.3-1.4-2.1-4.1-2-7.9.5-1.1.7-2.1 1.5-2.9 2.1L.3 31.7c1-.9 2.5-2 3.8-2.8C11 24.4 17 25.1 20.3 30c2.9 4.6 1.8 9.4-3.1 13.9l1.3 2.4-4.9 2.9zm10.1 2.1c1.3 2 .7 4.9-1.3 6.2-2 1.3-4.9.7-6.2-1.3-1.3-2-.7-4.9 1.3-6.2 2.1-1.3 4.9-.7 6.2 1.3z"/></svg>