<svg width="24" height="24" viewBox="0 0 24 24" fill="none" xmlns="http://www.w3.org/2000/svg">
<path d="M9 22H6C5.46957 22 4.96086 21.7893 4.58579 21.4142C4.21071 21.0391 4 20.5304 4 20V4C4 3.46957 4.21071 2.96086 4.58579 2.58579C4.96086 2.21071 5.46957 2 6 2H13.1716C13.702 2 14.2107 2.21071 14.5858 2.58579L20 8V12" stroke="#FF690C" stroke-width="1.8" stroke-linecap="round" stroke-linejoin="round"/>
<path d="M12 11H8" stroke="#FF690C" stroke-width="1.8" stroke-linecap="round" stroke-linejoin="round"/>
<path d="M12 7L9 7H8" stroke="#FF690C" stroke-width="1.8" stroke-linecap="round" stroke-linejoin="round"/>
<path d="M15 22C17.2091 22 19 20.2091 19 18C19 15.7909 17.2091 14 15 14C12.7909 14 11 15.7909 11 18C11 20.2091 12.7909 22 15 22Z" stroke="#FF690C" stroke-width="1.8" stroke-linecap="round" stroke-linejoin="round"/>
<path d="M20 23L18 21" stroke="#FF690C" stroke-width="1.8" stroke-linecap="round" stroke-linejoin="round"/>
</svg>
