<svg width="86" height="18" viewBox="0 0 86 18" fill="none" xmlns="http://www.w3.org/2000/svg">
<g clip-path="url(#clip0)">
<path d="M14.8662 13.1278L17.4461 12.8922C17.6012 13.6774 17.9184 14.2557 18.3977 14.6269C18.8771 14.9981 19.5185 15.1837 20.3221 15.1837C21.1821 15.1837 21.8235 15.0195 22.2465 14.6911C22.44 14.5665 22.6008 14.3961 22.715 14.1947C22.8292 13.9933 22.8933 13.7668 22.902 13.5347C22.9083 13.2648 22.8096 13.0033 22.6271 12.8065C22.3559 12.5593 22.0293 12.3829 21.6755 12.2926C21.3654 12.1926 20.6605 12.0213 19.5608 11.7786C18.1369 11.4645 17.136 11.0718 16.558 10.6007C15.7544 9.94394 15.3526 9.14442 15.3526 8.20212C15.3556 7.58364 15.5559 6.9827 15.9236 6.48885C16.3391 5.93664 16.9051 5.51973 17.5519 5.28956C18.3802 4.99607 19.2545 4.85817 20.1318 4.88265C21.7812 4.88265 23.0219 5.21103 23.8536 5.86778C24.2539 6.17373 24.58 6.56805 24.8072 7.02078C25.0344 7.47352 25.1567 7.97275 25.1647 8.48052L22.5214 8.5876C22.4086 7.97368 22.1689 7.53109 21.8024 7.25982C21.4358 6.98855 20.879 6.85292 20.1318 6.85292C19.3564 6.85292 18.7572 6.99569 18.3343 7.28123C18.2046 7.35707 18.0971 7.46642 18.0228 7.59811C17.9485 7.7298 17.91 7.87912 17.9114 8.03079C17.9153 8.17599 17.9539 8.31807 18.0239 8.44488C18.0938 8.57168 18.1931 8.67944 18.3132 8.75893C18.6515 9.01592 19.4621 9.28005 20.745 9.55132C21.7243 9.73215 22.6814 10.0194 23.5999 10.408C24.1857 10.6747 24.6898 11.0964 25.059 11.6287C25.4181 12.2064 25.5998 12.8792 25.581 13.5616C25.5621 14.2441 25.3437 14.9055 24.9533 15.4621C24.5084 16.0774 23.8887 16.5406 23.1769 16.7899C22.2526 17.113 21.2785 17.2654 20.301 17.2396C18.6374 17.2396 17.3615 16.8898 16.4734 16.1902C15.5852 15.4907 15.0495 14.4698 14.8662 13.1278Z" fill="#070606"/>
<path d="M26.2222 4.86133H28.7598V7.21708H26.2222V4.86133ZM26.2222 8.07371H28.7598V17.0684H26.2222V8.07371Z" fill="#070606"/>
<path d="M34.6808 8.07385V10.0013H32.9891V13.642C32.9705 14.0708 32.9847 14.5004 33.0314 14.9269C33.0681 15.0534 33.1513 15.1607 33.264 15.2268C33.3893 15.311 33.5365 15.3557 33.6869 15.3553C34.035 15.3286 34.3772 15.2492 34.702 15.1197L34.9134 16.9614C34.2795 17.209 33.605 17.3326 32.9256 17.3255C32.5072 17.3315 32.0913 17.2589 31.6991 17.1114C31.3858 17.0042 31.1077 16.8115 30.8955 16.5545C30.7056 16.2806 30.5824 15.9651 30.536 15.6337C30.465 15.0799 30.4368 14.5214 30.4514 13.9632V10.0013H29.1826V8.07385H30.4514V6.29633L32.9891 4.9043V8.07385H34.6808Z" fill="#070606"/>
<path d="M40.8559 14.1561L43.4147 14.5416C43.1211 15.3491 42.5705 16.0347 41.8498 16.4904C41.1449 16.933 40.2567 17.1543 39.1853 17.1543C37.4935 17.1543 36.2459 16.6546 35.4423 15.6552C34.6387 14.6558 34.3144 13.6421 34.4695 12.6141C34.4695 11.1436 34.8925 9.99425 35.7383 9.16617C36.161 8.75266 36.6616 8.42957 37.2102 8.21617C37.7588 8.00276 38.3442 7.90342 38.9315 7.92405C40.3695 7.92405 41.5114 8.35951 42.3573 9.23042C43.2032 10.1013 43.605 11.4363 43.5627 13.2352H37.1129C37.1019 13.5343 37.1505 13.8326 37.2559 14.1122C37.3612 14.3919 37.5212 14.6472 37.7261 14.8628C37.9226 15.0539 38.1547 15.2034 38.4088 15.3027C38.663 15.402 38.9341 15.449 39.2064 15.441C39.5677 15.4535 39.9234 15.3484 40.2215 15.1412C40.5231 14.8952 40.7381 14.5572 40.8347 14.1775L40.8559 14.1561ZM40.9828 11.9502C40.9687 11.2792 40.7783 10.7652 40.4118 10.4083C40.0402 10.0588 39.5507 9.86631 39.0436 9.87029C38.5365 9.87428 38.05 10.0744 37.6838 10.4297C37.4943 10.6315 37.3477 10.8706 37.2531 11.1322C37.1585 11.3937 37.118 11.6722 37.134 11.9502H40.9828Z" fill="#070606"/>
<path d="M44.6201 17.0684V4.86133H47.3692V14.9268H54.1362V17.0684H44.6201Z" fill="#F3000B"/>
<path d="M54.1785 12.4641C54.1863 11.6704 54.4055 10.8936 54.8129 10.2155C55.232 9.48781 55.8585 8.90551 56.6104 8.54504C57.4146 8.1529 58.2977 7.95497 59.1903 7.96681C60.6565 7.96681 61.8618 8.40227 62.8064 9.27318C63.2645 9.68601 63.6285 10.1948 63.8732 10.7643C64.1178 11.3338 64.2373 11.9503 64.2232 12.5712C64.2406 13.1989 64.1229 13.8228 63.8782 14.3997C63.6335 14.9767 63.2678 15.4927 62.8064 15.9121C61.8618 16.7973 60.6706 17.2399 59.2326 17.2399C58.3572 17.2392 57.4921 17.0493 56.6949 16.6831C55.9312 16.3552 55.2879 15.7935 54.8552 15.0769C54.4122 14.2887 54.1926 13.392 54.2208 12.4856L54.1785 12.4641ZM56.8641 12.6141C56.8641 13.4992 57.0897 14.1703 57.5408 14.6271C57.9918 15.0771 58.5995 15.3293 59.2326 15.3293C59.8656 15.3293 60.4733 15.0771 60.9243 14.6271C61.3754 14.156 61.601 13.4778 61.601 12.5926C61.601 11.7074 61.3754 11.0436 60.9243 10.601C60.4733 10.1511 59.8656 9.89886 59.2326 9.89886C58.5995 9.89886 57.9918 10.1511 57.5408 10.601C57.0897 11.0721 56.8641 11.7431 56.8641 12.6141Z" fill="#F3000B"/>
<path d="M73.549 10.7933L71.0114 11.2002C70.9597 10.7897 70.7556 10.4144 70.4404 10.1509C70.0948 9.90538 69.6777 9.78469 69.2562 9.80821C68.9752 9.79591 68.6948 9.84286 68.4327 9.94609C68.1706 10.0493 67.9326 10.2066 67.7336 10.4079C67.353 10.8076 67.1627 11.4787 67.1627 12.4209C67.1627 13.3632 67.36 14.1128 67.7548 14.6696C67.9539 14.8853 68.1971 15.0545 68.4673 15.1654C68.7375 15.2764 69.0284 15.3264 69.3196 15.3121C69.7535 15.33 70.1799 15.1936 70.525 14.9266C70.8352 14.6696 71.0537 14.2342 71.1806 13.6202L73.6759 14.0271C73.408 15.0837 72.9076 15.8832 72.1745 16.4257C71.4414 16.9683 70.4475 17.2395 69.1928 17.2395C67.7689 17.2395 66.634 16.8326 65.7881 16.0188C64.9422 15.205 64.5193 14.0771 64.5193 12.6351C64.5193 11.1788 64.9422 10.0438 65.7881 9.22998C66.634 8.41618 67.783 8.00928 69.235 8.00928C70.4193 8.00928 71.3568 8.23771 72.0476 8.69459C72.7762 9.20309 73.3071 9.95278 73.549 10.8148" fill="#F3000B"/>
<path d="M74.2258 17.0684V4.86133H76.7635V11.2433L79.724 8.07371H82.8538L79.576 11.3718L83.0864 17.0684H80.3584L77.9477 13.0422L76.7635 14.1987V17.0684H74.2258Z" fill="#F3000B"/>
<path d="M11.8 4.86114C11.5618 3.69323 10.9333 2.64421 10.0203 1.89103C9.10728 1.13784 7.96573 0.726562 6.78815 0.726562C5.61058 0.726562 4.46903 1.13784 3.55604 1.89103C2.64305 2.64421 2.01448 3.69323 1.77634 4.86114H0V17.7107H13.7455V4.86114H11.8ZM6.78815 2.93371C7.39901 2.93325 7.99588 3.11884 8.50122 3.46639C9.00656 3.81393 9.39701 4.30736 9.62184 4.88256H4.0602C4.2635 4.31415 4.63404 3.82256 5.12183 3.47408C5.60963 3.1256 6.19121 2.937 6.78815 2.93371ZM11.4193 15.5691H2.32616V7.21689H11.4193V15.5691Z" fill="#070606"/>
<path d="M10.5525 6.4458L6.66145 11.5856L4.63135 9.87234L3.19336 11.6927L6.83063 14.7337L12.2865 7.64509L10.5525 6.4458Z" fill="#F3000B"/>
</g>
<defs>
<clipPath id="clip0">
<rect width="85.8143" height="16.9841" fill="white" transform="translate(0 0.726562)"/>
</clipPath>
</defs>
</svg>
