<svg version="1.1" id="Слой_1" xmlns="http://www.w3.org/2000/svg" xmlns:xlink="http://www.w3.org/1999/xlink" x="0px"
    y="0px" viewBox="0 0 34 34" style="enable-background:new 0 0 34 34;" xml:space="preserve" fill="#fff">
    <g>
        <path class="st0" d="M17,0C7.6,0,0,7.6,0,17s7.6,17,17,17s17-7.6,17-17S26.4,0,17,0z M24.4,15.2l-8.2,8.2c-0.7,0.7-1.9,0.7-2.6,0
                                l-4.1-4.1c-0.7-0.7-0.7-1.9,0-2.6c0.7-0.7,1.9-0.7,2.6,0l2.4,2.4c0.2,0.2,0.5,0.2,0.7,0l6.5-6.5c0.7-0.7,1.9-0.7,2.6,0
                                c0.3,0.3,0.5,0.8,0.5,1.3C24.9,14.3,24.7,14.8,24.4,15.2z" />
    </g>
</svg>