<svg width="99" height="32" viewBox="0 0 99 32" fill="none" xmlns="http://www.w3.org/2000/svg">
<path d="M42.9174 31.4666H34.8392L39.888 0.552394H47.967L42.9174 31.4666ZM28.0434 0.552394L20.342 21.8154L19.4307 17.2367L19.4315 17.2383L16.7133 3.33587C16.7133 3.33587 16.3846 0.552394 12.8813 0.552394H0.149397L0 1.07584C0 1.07584 3.89344 1.88293 8.45003 4.60935L15.4683 31.4674H23.8852L36.7374 0.552394H28.0434V0.552394ZM91.5825 31.4666H99L92.5328 0.551567H86.039C83.0403 0.551567 82.3099 2.85541 82.3099 2.85541L70.2619 31.4666H78.6829L80.367 26.8746H90.6363L91.5825 31.4666ZM82.6934 20.5312L86.9379 8.96235L89.3258 20.5312H82.6934ZM70.8936 7.98656L72.0464 1.34791C72.0464 1.34791 68.4891 0 64.7808 0C60.772 0 51.2521 1.74566 51.2521 10.2342C51.2521 18.2207 62.4253 18.32 62.4253 22.515C62.4253 26.7101 52.4033 25.9584 49.0958 23.313L47.8948 30.2543C47.8948 30.2543 51.5019 32 57.013 32C62.5257 32 70.8421 29.1562 70.8421 21.416C70.8421 13.3782 59.5685 12.6298 59.5685 9.13518C59.5693 5.63971 67.4367 6.08874 70.8936 7.98656V7.98656Z" fill="#2566AF"/>
<path d="M19.4315 17.2374L16.7133 3.33498C16.7133 3.33498 16.3846 0.551514 12.8813 0.551514H0.149396L0 1.07496C0 1.07496 6.11943 2.33852 11.989 7.07272C17.6014 11.5977 19.4315 17.2374 19.4315 17.2374Z" fill="#E6A540"/>
</svg>
