<svg width="136" height="45" viewBox="0 0 136 45" fill="none" xmlns="http://www.w3.org/2000/svg">
<path d="M70.336 14.4762C70.2584 20.5808 75.7879 23.9876 79.9534 26.013C84.2333 28.0913 85.6708 29.4239 85.6544 31.2821C85.6218 34.1266 82.2403 35.3817 79.0754 35.4307C73.554 35.5162 70.3441 33.9432 67.7917 32.7533L65.8029 42.0406C68.3635 43.2183 73.1048 44.2452 78.0217 44.29C89.5627 44.29 97.1137 38.6052 97.1545 29.7906C97.1994 18.6043 81.6482 17.9849 81.7544 12.9847C81.7911 11.4687 83.2409 9.85089 86.4181 9.4393C87.9904 9.23147 92.3315 9.07254 97.2525 11.3343L99.1842 2.34853C96.5379 1.3868 93.136 0.465813 88.9011 0.465813C78.0381 0.465813 70.3972 6.22808 70.336 14.4762ZM117.745 1.24009C115.638 1.24009 113.862 2.46671 113.069 4.34944L96.5828 43.6299H108.116L110.411 37.3011H124.504L125.835 43.6299H136L127.13 1.24009H117.745ZM119.358 12.6913L122.687 28.6088H113.572L119.358 12.6913ZM56.3529 1.24009L47.2623 43.6299H58.2519L67.3384 1.24009H56.3529ZM40.0951 1.24009L28.6563 30.0922L24.0293 5.55976C23.4862 2.82125 21.3421 1.24009 18.9613 1.24009H0.261366L0 2.47079C3.83881 3.30212 8.20035 4.64285 10.8426 6.0773C12.4598 6.95346 12.9213 7.71959 13.4522 9.80199L22.2161 43.6299H33.8305L51.6361 1.24009H40.0951Z" fill="white"/>
</svg>
