<svg width="140" height="33" viewBox="0 0 140 33" fill="none" xmlns="http://www.w3.org/2000/svg">
<path d="M36.062 7.58786C31.3037 7.58786 27.578 11.5118 27.578 16.5267C27.578 21.4714 31.3037 25.3485 36.062 25.3485C40.8204 25.3485 44.5461 21.4714 44.5461 16.5267C44.5554 11.5118 40.8297 7.58786 36.062 7.58786ZM36.062 21.7383C33.5364 21.7383 31.6339 19.4954 31.6339 16.5173C31.6339 13.4737 33.5364 11.184 36.062 11.184C38.5877 11.184 40.532 13.4831 40.532 16.5267C40.532 19.5001 38.6156 21.7383 36.062 21.7383ZM65.1517 0.46582H61.9888C61.7283 0.46582 61.5143 0.681214 61.5143 0.943432V24.3558C61.5143 24.618 61.7283 24.8334 61.9888 24.8334H65.1563C65.4168 24.8334 65.6308 24.618 65.6308 24.3558V0.943432C65.6308 0.681214 65.4168 0.46582 65.1563 0.46582C65.1563 0.46582 65.1563 0.46582 65.1517 0.46582ZM58.2909 8.02801C57.0258 7.7377 55.7327 7.59254 54.4303 7.59722C51.1604 7.59722 47.8765 8.618 47.8765 13.8202V24.3651C47.8765 24.6274 48.0905 24.8428 48.351 24.8428H51.5232C51.7837 24.8428 51.9976 24.6274 51.9976 24.3651V13.8998C51.9976 13.1366 52.1279 11.2402 54.9605 11.2402C55.821 11.2495 56.6769 11.3292 57.5234 11.4696C57.756 11.5352 57.9932 11.3947 58.0584 11.1653L58.7468 8.58522C58.8212 8.29023 58.6398 8.09356 58.2909 8.01864V8.02801ZM25.7221 8.10293H22.3405C22.1312 8.10293 21.9498 8.2434 21.894 8.44943L18.6752 19.9028L15.7216 9.70901C15.4565 8.75847 14.6006 8.10293 13.6192 8.09825H12.5773C11.5959 8.09825 10.74 8.75847 10.4749 9.70901L7.52126 19.8981L4.30251 8.44475C4.2467 8.23872 4.06529 8.09825 3.85598 8.09825H0.469788C0.209312 8.09825 0 8.31364 0 8.57586C0 8.62737 0.00930273 8.67419 0.0232568 8.72101L4.64206 23.2788C4.93045 24.2013 5.78165 24.8287 6.74448 24.8287H8.10733C9.08877 24.824 9.94927 24.1778 10.233 23.232L13.0936 13.4831L15.9542 23.232C16.2379 24.1778 17.0984 24.824 18.0799 24.8287H19.4427C20.4055 24.8334 21.2614 24.2013 21.5544 23.2788L26.1825 8.72101C26.2616 8.46816 26.1267 8.20126 25.8756 8.12166C25.829 8.10761 25.7825 8.09825 25.7314 8.09825L25.7221 8.10293ZM139.053 8.10293H135.82C135.606 8.10293 135.411 8.22935 135.313 8.42134L130.876 20.2212L126.438 8.39324C126.359 8.20594 126.173 8.08888 125.973 8.09356H122.74C122.484 8.06547 122.252 8.25277 122.224 8.51499C122.215 8.59459 122.229 8.66951 122.257 8.74443L128.745 25.1331L126.122 31.8009C125.992 32.1334 126.136 32.4565 126.564 32.4565H129.75C129.945 32.4565 130.117 32.3394 130.192 32.1568L139.485 8.78657C139.606 8.55713 139.522 8.2715 139.294 8.14975C139.22 8.10761 139.136 8.08888 139.053 8.09356V8.10293ZM83.7711 0.46582H80.5989C80.3384 0.46582 80.1244 0.681214 80.1244 0.943432V7.96245C78.9849 7.70024 77.8174 7.57849 76.6499 7.58786C70.3426 7.58786 69.0263 13.3005 69.0263 16.4237C69.0263 23.3256 73.1381 25.3438 76.9987 25.3438C80.2872 25.3438 82.5199 24.5571 83.5944 24.0842C84.2409 23.8032 84.2409 23.424 84.2409 23.0868V0.948115C84.2456 0.685896 84.0362 0.470503 83.7711 0.46582C83.7758 0.46582 83.7711 0.46582 83.7711 0.46582ZM80.1291 21.373C79.2593 21.6119 78.3662 21.7383 77.4639 21.7476C74.1474 21.7476 73.3521 19.3877 73.3521 16.5829C73.3521 15.5855 73.2497 11.2261 77.3104 11.2261C78.2639 11.2449 79.2081 11.3713 80.1337 11.6007V21.3637L80.1291 21.373ZM113.638 7.58786C110.828 7.58786 109.247 7.95777 107.712 8.39324C107.302 8.5103 107.13 8.79593 107.247 9.2595L107.721 11.1934C107.781 11.4743 108.037 11.8536 108.493 11.7318C109.479 11.4884 110.996 11.0014 113.205 11.0014C115.414 11.0014 115.986 11.8349 115.986 13.8249H113.256C107.433 13.8249 105.814 16.92 105.814 19.4532C105.814 22.6467 107.358 25.3438 112.837 25.3438C116.963 25.3438 119.019 24.2949 119.48 24.0514C119.852 23.8548 120.08 23.7049 120.08 23.0494V13.4035C120.084 9.03474 117.517 7.58786 113.638 7.58786ZM115.963 21.6259C114.991 21.9115 113.986 22.0473 112.977 22.0426C110.605 22.0426 109.921 20.8439 109.921 19.6031C109.921 18.0204 110.958 16.9996 113.224 16.9996H115.963V21.6165V21.6259ZM95.3344 7.58786C92.0459 7.58786 89.8132 8.37451 88.7388 8.84744C88.0969 9.13307 88.0969 9.51235 88.0969 9.84949V31.9882C88.0969 32.2504 88.3108 32.4658 88.5713 32.4658H91.7389C91.9994 32.4658 92.2133 32.2504 92.2133 31.9882V24.9692C93.3529 25.2314 94.5204 25.3578 95.6926 25.3438C102 25.3438 103.316 19.6312 103.316 16.508C103.307 9.606 99.1811 7.58786 95.3344 7.58786ZM95.0274 21.7055C94.0785 21.6868 93.1297 21.5557 92.2087 21.3262V11.5586C93.0785 11.3198 93.9716 11.1934 94.8739 11.184C98.1903 11.184 98.9857 13.544 98.9857 16.3488C98.9857 17.3508 99.0881 21.7055 95.0274 21.7055Z" fill="#FF1F3E"/>
</svg>
